<?xml version="1.0" encoding="UTF-8" standalone="no"?>
<!-- Created with Inkscape (http://www.inkscape.org/) -->

<svg
   xmlns:osb="http://www.openswatchbook.org/uri/2009/osb"
   xmlns:dc="http://purl.org/dc/elements/1.1/"
   xmlns:cc="http://creativecommons.org/ns#"
   xmlns:rdf="http://www.w3.org/1999/02/22-rdf-syntax-ns#"
   xmlns:svg="http://www.w3.org/2000/svg"
   xmlns="http://www.w3.org/2000/svg"
   xmlns:xlink="http://www.w3.org/1999/xlink"
   xmlns:sodipodi="http://sodipodi.sourceforge.net/DTD/sodipodi-0.dtd"
   xmlns:inkscape="http://www.inkscape.org/namespaces/inkscape"
   version="1.1"
   id="svg2"
   width="805.33331"
   height="144"
   viewBox="0 0 805.33331 144"
   sodipodi:docname="leafdivider.svg"
   inkscape:version="0.92.3 (2405546, 2018-03-11)">
  <metadata
     id="metadata8">
    <rdf:RDF>
      <cc:Work
         rdf:about="">
        <dc:format>image/svg+xml</dc:format>
        <dc:type
           rdf:resource="http://purl.org/dc/dcmitype/StillImage" />
        <dc:title />
      </cc:Work>
    </rdf:RDF>
  </metadata>
  <defs
     id="defs6">
    <linearGradient
       id="linearGradient6015"
       osb:paint="solid">
      <stop
         style="stop-color:#000000;stop-opacity:0;"
         offset="0"
         id="stop6013" />
    </linearGradient>
    <linearGradient
       inkscape:collect="always"
       xlink:href="#linearGradient6015"
       id="linearGradient6017"
       x1="0"
       y1="72"
       x2="805.33331"
       y2="72"
       gradientUnits="userSpaceOnUse" />
  </defs>
  <sodipodi:namedview
     pagecolor="#ffffff"
     bordercolor="#666666"
     borderopacity="1"
     objecttolerance="10"
     gridtolerance="10"
     guidetolerance="10"
     inkscape:pageopacity="0"
     inkscape:pageshadow="2"
     inkscape:window-width="1680"
     inkscape:window-height="997"
     id="namedview4"
     showgrid="false"
     inkscape:zoom="1.5596027"
     inkscape:cx="407.44713"
     inkscape:cy="133.9938"
     inkscape:window-x="-8"
     inkscape:window-y="290"
     inkscape:window-maximized="1"
     inkscape:current-layer="g3717" />
  <g
     id="g3717"
     transform="translate(0,0.6411892)"
     style="stroke:url(#linearGradient6017);opacity:1">
    <path
       style="fill:#fbf8ef;stroke-width:1.33333337;stroke:url(#linearGradient6017);opacity:0"
       d="M 0,72 V 0 h 402.66665 402.66666 v 72 72 H 402.66665 0 Z"
       id="path3721"
       inkscape:connector-curvature="0" />
    <path
       style="fill:#d3ac39;stroke-width:1.33333337;stroke:url(#linearGradient6017)"
       d="m 354.95944,141.81924 c -3.12056,-2.55131 -5.27192,-10.67781 -3.82501,-14.44841 0.70147,-1.82798 1.4032,-1.75452 5.81193,0.60842 6.35326,3.40514 16.57628,3.47015 23.7203,0.15083 6.384,-2.96619 16.66666,-11.64321 16.66666,-14.06416 0,-0.94946 -2.69816,-4.21337 -5.9959,-7.25313 l -5.99591,-5.52683 -20.33743,0.0274 c -21.9563,0.0296 -40.01884,-3.005296 -43.11888,-7.244864 -1.43161,-1.957847 -2.49346,-1.884335 -12.06085,0.834976 -8.71964,2.478359 -13.91191,2.991517 -30.75122,3.03918 -22.11995,0.06261 -25.25492,-0.809537 -21.94736,-6.105771 3.05058,-4.884765 0.55753,-4.287705 -8.48194,2.031335 -14.42954,10.086974 -18.77644,11.859564 -30.68776,12.514004 -8.77242,0.48198 -11.03752,0.19452 -12.51734,-1.58855 -1.53958,-1.85508 -1.45214,-2.56889 0.59129,-4.826855 3.81327,-4.213614 1.47173,-4.434912 -6.13579,-0.579892 -9.74922,4.940307 -16.1505,7.056507 -26.20274,8.662357 -13.15267,2.10115 -16.40132,-0.007 -11.51088,-7.47114 1.19933,-1.830415 1.87737,-3.631263 1.50676,-4.00188 -0.37061,-0.370617 -5.28924,0.875483 -10.93025,2.769112 -13.76939,4.622228 -31.49324,5.619938 -49.85013,2.806158 -7.567819,-1.16001 -14.367017,-2.484474 -15.109329,-2.943247 -0.780634,-0.482459 0.242324,-2.521523 2.42634,-4.836426 l 3.775996,-4.00229 -4.471326,0.951465 C 81.227876,93.08738 70.837194,92.123193 60.386845,88.616861 47.003405,84.126411 30.446922,74.797887 30.973143,72.044115 c 0.274588,-1.43695 4.544523,-2.940292 14.375401,-5.061234 7.691633,-1.659416 15.359326,-3.327006 17.039318,-3.705756 4.482855,-1.010649 2.485753,-2.843334 -4.189185,-3.844304 C 49.557517,58.137 34.982702,50.60922 26.759839,43.194907 18.370703,35.630669 8.0179882,20.432975 4.0744776,9.8929979 2.5668482,5.8634972 1.3333333,2.0489697 1.3333333,1.4162703 c 0,-1.46335415 15.1903767,2.5068826 27.2986897,7.134929 12.975454,4.9594857 19.639698,9.5950047 32.671871,22.7259217 6.217143,6.264251 11.775195,11.389546 12.351227,11.389546 0.576032,0 0.124021,-2.209792 -1.00447,-4.91065 -3.11392,-7.452658 -7.513601,-25.693071 -6.566812,-27.225007 0.479094,-0.7751916 2.634488,-0.9744048 5.043092,-0.46611 8.560689,1.806586 17.281525,7.898404 26.625406,18.598808 11.389973,13.043545 24.914323,24.713304 24.914323,21.497831 0,-0.27782 -2.1,-3.992523 -4.66666,-8.254895 -4.66787,-7.751756 -5.54377,-10.545481 -3.66667,-11.694977 1.20085,-0.735378 25.53945,3.770468 32.25035,5.97056 2.6123,0.856416 8.41449,3.865766 12.89373,6.687446 4.47925,2.82168 8.56905,5.130327 9.08847,5.130327 0.51941,0 -1.8676,-3.579205 -5.30447,-7.953791 -8.96496,-11.410968 -8.077,-12.638964 8.43713,-11.667965 14.43221,0.848585 22.05547,3.112924 38.74988,11.509901 6.11329,3.074876 11.73989,5.382415 12.50355,5.127864 0.76365,-0.254549 -1.68815,-3.228942 -5.44843,-6.609761 -3.76028,-3.380819 -6.83688,-6.784176 -6.83688,-7.563017 0,-4.010855 14.91459,-7.027915 26.08364,-5.276436 4.18377,0.656081 12.62903,3.774776 19.31533,7.13284 6.53459,3.281868 12.54348,5.967032 13.3531,5.967032 0.8096,0 -0.47319,-2.456012 -2.85066,-5.457806 -5.44317,-6.87257 -4.12297,-7.932494 8.6842,-6.972105 24.64175,1.847843 36.58229,6.501844 51.16967,19.944127 8.08694,7.452129 9.60914,8.40727 8.90081,5.585022 -0.60468,-2.409246 -0.25493,-3.634541 1.19641,-4.191474 2.9723,-1.140578 16.56239,2.692772 23.07543,6.508876 6.70971,3.931328 19.34616,17.775125 30.01909,32.887262 11.37916,16.112091 14.31341,19.697441 16.10981,19.684531 3.76962,-0.0271 11.6328,-9.912683 17.53455,-22.044415 9.57049,-19.673292 17.82987,-27.289558 37.70752,-34.771488 8.00836,-3.014338 9.0902,-3.145188 10.46451,-1.265704 1.35029,1.846634 2.15009,1.603598 6.71801,-2.041402 13.28157,-10.598114 33.64321,-17.320344 53.18524,-17.558674 6.6,-0.08049 13.35,0.307994 15,0.8633 3.05985,1.029794 4.10716,5.32164 1.66666,6.82995 -0.73333,0.453225 -1.33333,1.38917 -1.33333,2.079881 0,0.690709 6.45097,-2.101831 14.33549,-6.205644 12.02726,-6.260065 15.78014,-7.57744 23.30762,-8.181673 8.8991,-0.714335 20.26112,1.328422 21.87022,3.932014 0.42788,0.692331 -0.89982,3.010027 -2.95046,5.150435 -4.39919,4.591764 -3.59523,4.755611 6.28882,1.281648 16.51815,-5.80566 38.48164,-6.673043 38.48164,-1.519717 0,1.25769 -0.88092,3.451388 -1.9576,4.874882 -3.86223,5.106327 -2.42107,5.908611 5.62427,3.130992 6.69098,-2.310036 43.86954,-11.876152 46.15648,-11.876152 0.46393,0 0.84352,1.629504 0.84352,3.62112 0,3.537638 0.16137,3.46472 7,-3.162861 7.28025,-7.055584 26.36754,-20.4582587 29.13544,-20.4582587 2.17005,0 0.668,17.2120617 -2.24616,25.7389307 -1.20406,3.523077 -1.84283,6.751972 -1.41947,7.175321 0.42335,0.42335 4.54083,-3.128032 9.14995,-7.891958 9.33099,-9.64438 22.93977,-18.99057 35.0469,-24.069409 10.38037,-4.3544779 27.26991,-9.46075444 28.20372,-8.5269385 2.69468,2.6946733 -10.02592,27.1231775 -19.39135,37.2389575 -9.18914,9.925382 -14.19106,12.488903 -42.81237,21.94165 -3.58781,1.184942 2.49914,2.60337 19,4.427529 18.09271,2.000136 18.77913,2.751325 10.07789,11.02862 -6.99396,6.653191 -19.59144,12.63136 -30.22658,14.344099 -8.94455,1.440477 -30.53976,-0.120374 -45.51797,-3.28994 -13.022,-2.755604 -12.90098,-2.192495 1.33333,6.203884 5.5,3.24428 10,6.724721 10,7.734311 0,2.84932 -7.79207,4.09047 -26.66667,4.2476 -19.77888,0.16464 -23.79292,-0.8936 -36.74041,-9.686074 -4.47248,-3.037197 -8.36793,-5.286011 -8.65659,-4.997365 -0.28864,0.288646 1.83824,3.792405 4.72643,7.78613 2.88817,3.993729 5.27057,8.397479 5.29423,9.786119 0.0396,2.3275 -0.70334,2.45543 -9.50772,1.63715 -13.06868,-1.2146 -25.87051,-5.94493 -36.69571,-13.559202 -16.1951,-11.391377 -18.15886,-12.641888 -18.81773,-11.983015 -0.35693,0.356934 2.18228,4.088072 5.64271,8.291419 5.81074,7.058255 6.11154,7.774168 3.93506,9.365648 -1.29613,0.94776 -4.49193,1.80707 -7.10177,1.90957 -13.94123,0.54755 -20.02408,-1.24378 -34.89125,-10.275114 -9.29816,-5.648339 -12.25842,-5.514496 -7.33906,0.331825 6.06864,7.212179 5.44887,7.485769 -15.51485,6.848969 l -19,-0.57714 -12.41893,-5.727419 c -11.84675,-5.463534 -16.02571,-6.476218 -11.61329,-2.814232 3.06164,2.540932 2.51696,3.72525 -3.01007,6.544933 C 471.45312,101.66652 459.39681,104 449.30172,104 c -8.26861,0 -25.39863,3.93597 -32.01036,7.35503 -4.11547,2.12819 -4.14953,2.2234 -1.74599,4.87928 5.1325,5.67135 13.43776,9.28141 23.58186,10.25037 7.8753,0.75225 10.86194,1.69906 14.7755,4.68407 2.69776,2.05769 4.67918,4.41881 4.40314,5.24693 -0.76555,2.29665 -10.04383,3.85891 -18.99854,3.19893 -9.22841,-0.68014 -19.39329,-5.29002 -27.18348,-12.328 -2.81256,-2.54097 -5.55689,-4.61994 -6.09852,-4.61994 -0.54164,0 -4.30261,3.0323 -8.35773,6.73846 -10.43741,9.53919 -18.93669,13.54279 -30.33428,14.28898 -7.72724,0.50589 -9.85656,0.18326 -12.37388,-1.87487 z m 279.05557,-37.84356 c 2.45462,-3.97166 -19.00732,-26.076237 -30.52525,-31.439284 -7.04839,-3.281909 -12.82311,-4.152764 -12.82311,-1.933784 0,0.698104 2.58451,3.047469 5.74336,5.220812 11.00428,7.571144 9.14425,8.118397 -4.85845,1.429449 -11.71678,-5.59698 -26.03866,-10.215238 -23.55158,-7.594484 0.36667,0.386375 8.46667,6.234344 18,12.995487 19.94004,14.141692 27.04032,18.022904 37.69688,20.606144 9.67771,2.34596 9.32565,2.32155 10.31815,0.71566 z M 184.43677,99.712761 c 5.00688,-1.52919 12.50688,-5.048278 16.66666,-7.820196 9.82031,-6.543885 26.52218,-22.000806 25.21355,-23.334158 -1.76204,-1.795327 -18.96676,6.150129 -32.4568,14.989146 -3.57992,2.345652 -3.58599,2.343798 -2.00373,-0.612657 0.87286,-1.630987 4.60216,-5.20856 8.28729,-7.950163 5.55361,-4.131682 6.23113,-5.057332 3.95901,-5.408954 -6.71457,-1.039116 -24.55828,12.984244 -33.54195,26.360602 -6.02835,8.975999 -4.50559,9.390419 13.87597,3.77638 z m 48.12177,-2.884514 c 3.72613,-1.738567 11.87424,-6.87724 18.10689,-11.419274 6.23266,-4.542033 15.8155,-10.467157 21.29519,-13.166941 l 9.96308,-4.908699 -6.07405,-0.397357 c -7.92716,-0.518584 -18.30442,3.408225 -31.126,11.778249 -5.53135,3.610899 -10.05699,6.095084 -10.05699,5.520412 0,-1.390232 7.51589,-8.354268 13.31888,-12.340933 5.53136,-3.800056 2.91169,-5.149563 -4.18803,-2.157441 -9.97525,4.203993 -33.13566,27.019872 -30.97565,30.514857 1.28507,2.07928 11.88381,0.24117 19.73668,-3.422873 z m 460.36447,2.411145 c 0.57152,-1.724785 -25.83248,-16.848448 -34.25636,-19.621341 -16.03135,-5.277042 -18.49551,-4.119294 -6.10998,2.87067 3.9728,2.24211 7.59703,4.681314 8.05384,5.420455 0.86512,1.399793 -2.2774,0.365752 -19.69545,-6.480747 -5.73004,-2.252302 -11.07304,-4.095096 -11.87332,-4.095096 -5.03244,0 20.42807,18.177776 30.29157,21.626955 7.56646,2.645922 32.73614,2.855062 33.5897,0.279104 z M 466.33332,97.159915 c 4.18245,-0.806004 7,-2.049852 7,-3.090254 0,-2.628912 -12.35624,-7.402994 -19.16037,-7.402994 -6.71094,0 -12.83963,1.893554 -12.83963,3.966998 0,0.751484 2.85,1.38458 6.33333,1.40688 7.2985,0.04672 5.56764,1.793055 -3.21036,3.239072 -3.04902,0.502274 -6.5617,1.657616 -7.80594,2.567431 -1.8446,1.348803 0.0404,1.5626 10.21036,1.158025 6.85993,-0.272901 15.62261,-1.103221 19.47261,-1.845158 z m -323.61286,0.163216 c 3.89644,-0.738944 10.12834,-2.748967 13.84866,-4.466715 7.55238,-3.487097 27.43087,-17.916555 27.43087,-19.911611 0,-2.59461 -13.00945,0.122067 -27.08706,5.656399 -7.93123,3.118004 -14.69193,5.397579 -15.02379,5.065723 -0.33185,-0.331858 3.15734,-2.642675 7.75374,-5.135152 8.23973,-4.468123 8.29657,-4.53762 4.0461,-4.947922 -9.28408,-0.896202 -30.13152,6.810912 -46.17627,17.070962 -3.56801,2.281614 -6.17383,4.461844 -5.79072,4.844954 2.40766,2.407667 31.17194,3.686926 40.99847,1.823362 z m 439.20822,0.125586 c 1.11206,-1.799369 -15.30035,-17.446097 -23.51538,-22.41831 -3.91008,-2.36661 -9.20265,-4.660648 -11.76128,-5.097864 -4.617,-0.788951 -4.63089,-0.776626 -1.84522,1.636258 1.54374,1.337159 5.65965,4.41529 9.14646,6.840291 3.4868,2.425 6.05443,4.694317 5.70582,5.042925 -0.34862,0.348607 -6.08323,-2.018441 -12.74359,-5.260109 -12.72984,-6.195748 -28.83703,-10.137055 -31.31221,-7.661865 -0.90084,0.900833 -0.0697,1.867209 2.5272,2.938348 12.19106,5.028456 22.14081,9.972656 29.78698,14.801645 4.75532,3.003261 11.66926,6.549463 15.36428,7.880451 7.18715,2.588882 17.40942,3.300574 18.64694,1.29823 z M 372.54178,96.17558 c 3.23249,-0.702577 3.55545,-1.107051 1.9475,-2.439096 -2.3379,-1.93674 -12.10297,-4.292697 -18.48929,-4.460796 -4.37052,-0.11504 -4.47391,-0.215716 -1.62907,-1.586459 4.01164,-1.93295 3.07828,-4.256958 -1.91032,-4.756556 -7.14281,-0.715337 -24.17306,7.132646 -21.43014,9.875568 3.4319,3.431914 30.94556,5.663782 41.51132,3.367339 z m 159.37247,-0.09437 c 2.71691,-1.71919 0.50847,-4.047104 -11.38764,-12.003708 -10.0783,-6.740779 -20.37686,-10.122356 -27.85996,-9.147942 l -4,0.520863 3.33334,1.559091 c 1.83333,0.8575 5.67545,2.48903 8.53805,3.625625 7.85816,3.120084 4.9586,3.781897 -6.34237,1.447617 -11.05123,-2.282692 -18.19568,-2.678393 -18.19568,-1.00778 0,2.40406 28.76909,13.874616 37.33333,14.885211 12.43478,1.467328 16.41236,1.493233 18.58093,0.121013 z M 320.66666,86.382068 c 9.56465,-3.635509 16,-6.807192 16,-7.885659 0,-3.396285 -11.91975,-4.393222 -24.04414,-2.010989 -6.07158,1.192963 -12.0939,2.573736 -13.38294,3.068387 -1.52308,0.58446 -2.02887,0.389942 -1.44452,-0.555544 0.49454,-0.800199 3.74297,-2.501334 7.21872,-3.780298 10.54704,-3.880972 9.94514,-4.888917 -2.55316,-4.275616 -9.59076,0.470627 -12.9681,1.278279 -20,4.782766 -8.55439,4.263245 -19.79396,13.55354 -19.79396,16.361089 0,1.1062 5.78244,1.368335 21,0.951988 l 21,-0.574551 z M 437.75683,81 c 8.38118,-8.803647 9.27624,-9.200439 6.76717,-3 -1.35296,3.343453 2.69948,2.294191 6.43696,-1.666667 3.49552,-3.704437 13.02927,-18.819256 13.0356,-20.666666 0.012,-3.468162 -17.7218,4.329973 -24.42071,10.738658 C 435.71839,70.095679 429.26833,80.487439 426.79299,87 c -2.38287,6.269228 1.09568,4.365579 10.96384,-6 z M 90.733696,85.856573 C 100.78278,82.872316 116,75.914524 116,74.304024 c 0,-0.839877 -3.1061,-1.037281 -8.33334,-0.529613 -24.019245,2.332741 -28.999996,2.541081 -28.999996,1.213038 0,-0.759204 4.05,-2.056692 9,-2.883309 15.228606,-2.543075 16.684596,-2.952873 15.324346,-4.313131 -2.82597,-2.825962 -24.623276,-2.758486 -42.857704,0.132667 -9.826679,1.558068 -18.386467,3.154091 -19.021749,3.546716 -2.014963,1.245316 0.184864,3.138351 8.652238,7.445577 17.549983,8.927415 28.202673,10.732058 40.969901,6.940599 z M 377.41786,79.666667 C 371.81559,72.009901 360.43078,60.482228 355.42199,57.3948 c -5.65321,-3.484656 -11.422,-4.826131 -11.422,-2.656073 0,3.069585 7.99236,14.22255 14.66436,20.463422 8.88199,8.308055 12.38788,8.452443 6.24116,0.257039 -1.70196,-2.26922 -3.61713,-5.025855 -4.25593,-6.125855 -1.02559,-1.766013 -0.85855,-1.771385 1.4278,-0.04591 1.4241,1.074748 5.99473,5.124748 10.15696,9 4.16222,3.87525 7.96413,7.04591 8.44868,7.04591 0.48454,0 -0.98478,-2.55 -3.26516,-5.666666 z m 368.00679,3.539954 c 9.05918,-2.660353 19.90866,-8.43497 19.90866,-10.596352 0,-2.611053 -4.59116,-3.274866 -28.84529,-4.1706 -22.42401,-0.828144 -30.14117,-0.183662 -25.82137,2.156416 1.1,0.59588 5.9192,1.489279 10.70932,1.98533 4.79013,0.496052 9.59013,1.478986 10.66666,2.184301 1.2631,0.827535 -8.32874,0.965213 -27.04265,0.388163 -31.43116,-0.969192 -36.75747,0.185898 -19.03668,4.128401 28.89023,6.427465 46.89187,7.61554 59.46135,3.924341 z M 474.23815,68.07852 c 3.0643,-1.391271 10.5643,-5.466581 16.66666,-9.056247 17.30439,-10.179194 21.27626,-10.729904 7.1329,-0.988994 -12.38819,8.532069 -8.63958,9.154021 9.76182,1.619632 10.92879,-4.474758 21.19637,-11.019331 29.65889,-18.904622 5.4945,-5.119708 5.56191,-5.284841 2.68223,-6.56979 -4.03327,-1.799696 -27.06909,0.989572 -37.80794,4.577936 -4.583,1.531394 -11.18698,4.602958 -14.67552,6.825694 -6.20452,3.953239 -23.6572,21.595007 -23.6572,23.913516 0,1.889276 4.25197,1.300734 10.23816,-1.417125 z m 195.77294,-6.025549 c 7.34862,-3.595351 16.27202,-12.198667 19.87092,-19.158158 2.55868,-4.947958 1.55089,-5.756893 -5.29583,-4.250854 -2.88908,0.635494 -10.65287,2.113382 -17.25287,3.284193 -12.41641,2.20262 -23.94872,7.051005 -38.34427,16.120625 -4.22268,2.660415 -7.33727,5.387792 -6.92131,6.060838 1.86456,3.016925 20.66657,-0.04237 33.15184,-5.394188 9.70464,-4.159899 10.3264,-2.577627 0.95074,2.41954 -4.49368,2.395109 -8.17033,4.7035 -8.17033,5.129758 0,1.896304 15.64569,-1.097449 22.01111,-4.211754 z M 128.79352,62.254924 C 112.04565,51.781745 105.91298,46.820508 98.025813,37.364285 87.057096,24.213484 73.441442,13.922339 71.394025,17.235129 c -0.852351,1.379134 3.267989,13.581774 7.165957,21.222422 3.574976,7.007533 11.351341,15.750033 16.273601,18.295433 5.773627,2.985659 5.794797,2.371088 0.152237,-4.419651 -10.313101,-12.411669 -11.237614,-17.26648 -1.303461,-6.844742 10.184711,10.684594 24.352601,18.420702 33.650971,18.374476 3.62965,-0.01804 3.76484,-0.16694 1.46019,-1.608143 z M 325.34923,52.682681 C 311.52779,38.768375 301.67312,34.014495 281.11822,31.345687 c -3.41831,-0.443827 -6.5586,-0.251188 -6.97841,0.428086 -1.72943,2.798283 20.72757,20.690632 33.0495,26.331804 11.44045,5.23761 13.17025,3.568686 3.53097,-3.406702 -4.53578,-3.282286 -7.68301,-6.155744 -6.99385,-6.385466 0.68916,-0.229721 7.74559,3.19285 15.68092,7.605714 7.93535,4.412864 14.73252,7.718773 15.10483,7.346465 0.3723,-0.372308 -3.75102,-5.134616 -9.16295,-10.582907 z m 291.98409,6.368334 c 7.87813,-3.796634 23.99999,-18.750259 23.99999,-22.260891 0,-2.597161 -2.64302,-2.629012 -16.28618,-0.196269 -12.70351,2.265193 -22.42112,6.603416 -36.87284,16.461108 -9.92768,6.771789 -10.77193,7.658424 -7.65104,8.035108 4.07423,0.491748 15.52952,-2.63636 26.43656,-7.21906 4.19456,-1.76239 8.01804,-3.204344 8.49659,-3.204344 2.1518,0 -3.33515,4.66125 -9.74572,8.279152 -3.87422,2.186472 -7.04403,4.294813 -7.04403,4.685204 0,1.61352 11.84597,-1.29298 18.66667,-4.580008 z M 160,62.078188 c 0,-0.323663 -3.61071,-2.512961 -8.02379,-4.865108 -4.41307,-2.352147 -7.76748,-4.532929 -7.45423,-4.846183 0.31326,-0.313254 6.42151,1.304992 13.57388,3.596104 19.74461,6.324763 21.07348,4.918368 4.8403,-5.122686 -13.73188,-8.493862 -23.52982,-12.432883 -35.32551,-14.201756 -5.0318,-0.754564 -6.27732,-0.557071 -6.27732,0.995344 0,5.192469 14.59985,18.795482 24.28504,22.626918 C 150.84761,62.329496 160,63.486057 160,62.078188 Z m 52.66666,-0.64504 c 2.25445,-0.884388 1.35764,-1.707823 -5.80159,-5.326921 -4.65754,-2.354456 -8.14586,-4.603216 -7.75184,-4.997246 0.39403,-0.394029 4.50475,0.516567 9.13492,2.023544 C 218.04865,56.32228 232.27405,60 234.8115,60 c 3.60101,0 -2.23624,-3.804912 -18.81151,-12.26194 -9.16666,-4.677015 -19.96666,-9.568732 -24,-10.870481 -9.4031,-3.034832 -24.61718,-4.438359 -25.88443,-2.38789 -1.15223,1.86433 10.00441,13.20134 18.00021,18.291254 7.31101,4.653981 19.66564,9.853033 23.21756,9.770362 1.46666,-0.03413 3.86666,-0.532808 5.33333,-1.108157 z m 326.66666,-2.406517 c 3.66666,-1.138526 12.65034,-5.057834 19.96373,-8.709572 14.13269,-7.056767 14.72612,-5.616114 1.42332,3.455349 -5.69112,3.880893 -7.36924,5.628573 -5.72043,5.957555 2.86339,0.57132 14.90678,-4.828314 22.64707,-10.153776 7.16768,-4.931492 19.68631,-16.119488 19.68631,-17.593806 0,-2.048224 -7.28574,-2.719278 -14.66667,-1.35088 -8.27765,1.534651 -17.16059,5.791822 -41.62396,19.9484 -20.78541,12.028196 -21.29109,14.526986 -1.70937,8.44673 z m 157.33333,-0.767439 c 2.2,-1.498357 7.15,-5.366033 11,-8.594836 9.24424,-7.75268 8.93702,-4.830497 -0.5363,5.101293 -7.9832,8.369544 -7.35032,10.130908 1.92275,5.35119 9.8636,-5.084112 16.11101,-14.11462 21.67121,-31.325323 3.77738,-11.692236 2.53448,-13.009087 -6.88494,-7.294636 -12.37232,7.505868 -16.10612,10.892993 -21.85494,19.825797 -3.07141,4.772527 -7.77441,11.284091 -10.45109,14.470142 -2.67668,3.186049 -4.86669,6.076482 -4.86669,6.423182 0,1.156042 5.94926,-1.19797 10,-3.956809 z m -405.40601,0.525075 c 0.99498,-1.609912 -41.10922,-23.417672 -50.46174,-26.136522 -8.01859,-2.331065 -20.96305,-2.204156 -21.75891,0.21333 -0.67053,2.036833 18.2458,15.839154 28.29334,20.644258 4.4,2.104243 9.8,3.791086 12,3.748539 4.4509,-0.08608 4.89118,0.337567 -7.74016,-7.447517 -4.25708,-2.623771 -7.41594,-5.094699 -7.01968,-5.490954 0.39625,-0.396253 6.15388,1.804015 12.79472,4.889486 6.64085,3.08547 16.3997,6.74357 21.68636,8.129113 11.47854,3.008336 11.25923,2.98228 12.20607,1.450267 z M 71.989729,55 c -0.0056,-0.55 -2.555648,-2.429953 -5.666667,-4.177675 -7.867004,-4.41956 -22.201926,-14.130634 -26.98973,-18.283968 -4.637122,-4.022621 -4.162777,-3.781954 12.992166,6.591808 7.091431,4.288258 13.53128,7.584242 14.310776,7.32441 C 68.899955,45.700015 43.879867,20.478443 37.999999,17.587696 30.205419,13.755611 9.0711303,6.4844251 8.2152191,7.3403361 6.9385543,8.6170009 14.642342,22.860917 20.955646,30.896744 30.858386,43.501349 39.769224,49.030647 57.010269,53.269132 68.451593,56.081832 72.005055,56.492433 71.989729,55 Z M 752.85952,51.869735 c 13.04852,-3.99278 24.00183,-10.177008 29.13291,-16.44841 C 787.69118,28.456097 797.7712,9.7872107 796.73687,8.1136295 795.7302,6.48481 784.1716,10.411979 770.78211,16.932063 c -8.35797,4.06996 -12.60579,7.462488 -24.4488,19.526149 -19.68386,20.050581 -19.41278,21.324312 1.81032,8.506505 7.62099,-4.602737 15.65635,-9.463476 17.85635,-10.801641 8.06838,-4.907647 -4.80888,5.595228 -14.98278,12.220164 -13.62726,8.873663 -13.21726,10.094657 1.84232,5.486495 z"
       id="path3719"
       inkscape:connector-curvature="0" />
  </g>
</svg>
